<?xml version="1.0" encoding="UTF-8"?>
<svg width="383px" height="456px" viewBox="0 0 383 456" version="1.1" xmlns="http://www.w3.org/2000/svg" xmlns:xlink="http://www.w3.org/1999/xlink">
    <title>full version</title>
    <g id="Page-1" stroke="none" stroke-width="1" fill="none" fill-rule="evenodd">
        <g id="full-version" transform="translate(0, -0.001)">
            <g id="Logo">
                <path d="M184.5,0.001 C286.396536,0.001 369,82.6044637 369,184.501 C369,245.235544 339.653861,299.11593 294.367733,332.736009 C288.06533,321.440816 281.624078,309.685755 275.096595,296.904287 C266.155261,279.41465 258.320113,257.621157 267.97012,228.530718 L268.736364,226.231398 L269.140732,223.837473 C270.23184,217.433107 274.740203,207.596899 279.514489,197.19306 C289.191911,176.102937 301.229747,149.868481 301.229747,118.6268 C301.229747,53.3197488 248.828737,0.155240746 184.349689,0.000339355085 Z M66.9018043,118.6268 C66.9018043,149.869852 78.9451228,176.102937 88.6225447,197.19306 C93.3927187,207.596899 97.9051936,217.423509 98.9976731,223.837473 L99.3965583,226.231398 L100.162802,228.530718 C109.818292,257.608817 101.983144,279.41465 93.0459216,296.904287 C86.6006288,309.509646 80.2454088,321.120896 74.0286798,332.278752 C29.0836796,298.632827 0,244.963342 0,184.501 C0,82.6044637 82.6034637,0.001 184.5,0.001 L181.860256,0.0207320885 C118.271398,1.21632816 66.9018043,53.9707253 66.9018043,118.6268 Z" id="Combined-Shape" fill="#002EB9"></path>
                <path d="M184.067146,2.84217094e-13 C248.675589,2.84217094e-13 301.229747,53.2243843 301.229747,118.6268 C301.229747,125.727541 300.607895,132.569618 299.533242,139.151422 C270.246658,109.426172 229.525044,91.001 184.5,91.001 C139.094355,91.001 98.065201,109.738988 68.7234918,139.904012 C67.5724107,133.092811 66.9018043,125.99929 66.9018043,118.6268 C66.9018043,53.2243843 119.464187,2.84217094e-13 184.067146,2.84217094e-13 Z" id="Combined-Shape" fill="#4D7DDC" fill-rule="nonzero"></path>
            </g>
            <g id="OHM" transform="translate(108, 376.702)" fill="#002EB9" fill-rule="nonzero">
                <path d="M1.271,15.662 C1.271,30.832 14.268,31.324 21.279,31.324 C28.29,31.324 41.287,30.832 41.287,15.662 C41.287,0.492 28.29,0 21.279,0 C14.268,0 1.271,0.492 1.271,15.662 Z M13.571,15.662 C13.571,9.717 16.564,7.38 21.279,7.38 C25.994,7.38 28.987,9.717 28.987,15.662 C28.987,21.607 25.994,23.944 21.279,23.944 C16.564,23.944 13.571,21.607 13.571,15.662 Z" id="Shape"></path>
                <polygon id="Path" points="83.6722955 30.299 95.2342955 30.299 95.2342955 1.025 83.6722955 1.025 83.6722955 11.234 70.6752955 11.234 70.6752955 1.025 59.1132955 1.025 59.1132955 30.299 70.6752955 30.299 70.6752955 18.614 83.6722955 18.614"></polygon>
                <polygon id="Path" points="114.618591 30.299 125.114591 30.299 125.114591 9.389 125.196591 9.389 131.346591 30.299 140.120591 30.299 146.270591 9.389 146.352591 9.389 146.352591 30.299 156.848591 30.299 156.848591 1.025 140.571591 1.025 135.774591 18.04 135.692591 18.04 130.895591 1.025 114.618591 1.025"></polygon>
            </g>
            <g id="GO-WEB-FRAMEWORK" transform="translate(0, 433.001)" fill="#002EB9" fill-rule="nonzero">
                <path d="M16.7432913,22 L14.9032913,22 L14.4662913,20.068 C13.6996247,20.942 12.932958,21.5476667 12.1662913,21.885 C11.3996247,22.2223333 10.517958,22.391 9.52129134,22.391 C8.29462467,22.391 7.19445801,22.1648333 6.22079134,21.7125 C5.24712467,21.2601667 4.42295801,20.643 3.74829134,19.861 C3.07362467,19.079 2.55612467,18.1666667 2.19579134,17.124 C1.83545801,16.0813333 1.65529134,14.9696667 1.65529134,13.789 C1.65529134,12.6236667 1.83545801,11.5196667 2.19579134,10.477 C2.55612467,9.43433333 3.07362467,8.522 3.74829134,7.74 C4.42295801,6.958 5.24712467,6.337 6.22079134,5.877 C7.19445801,5.417 8.29462467,5.187 9.52129134,5.187 C10.4106247,5.187 11.2577913,5.30583333 12.0627913,5.5435 C12.8677913,5.78116667 13.5846247,6.13383333 14.2132913,6.6015 C14.841958,7.06916667 15.3632913,7.65566667 15.7772913,8.361 C16.1912913,9.06633333 16.451958,9.879 16.5592913,10.799 L13.7532913,10.799 C13.6766247,10.2623333 13.5117913,9.79083333 13.2587913,9.3845 C13.0057913,8.97816667 12.6876247,8.637 12.3042913,8.361 C11.920958,8.085 11.4916247,7.878 11.0162913,7.74 C10.540958,7.602 10.0426247,7.533 9.52129134,7.533 C8.64729134,7.533 7.89212467,7.70933333 7.25579134,8.062 C6.61945801,8.41466667 6.10195801,8.88616667 5.70329134,9.4765 C5.30462467,10.0668333 5.00945801,10.7376667 4.81779134,11.489 C4.62612467,12.2403333 4.53029134,13.007 4.53029134,13.789 C4.53029134,14.571 4.62612467,15.3376667 4.81779134,16.089 C5.00945801,16.8403333 5.30462467,17.5111667 5.70329134,18.1015 C6.10195801,18.6918333 6.61945801,19.1633333 7.25579134,19.516 C7.89212467,19.8686667 8.64729134,20.045 9.52129134,20.045 C10.2572913,20.0603333 10.908958,19.9645 11.4762913,19.7575 C12.0436247,19.5505 12.5227913,19.2515 12.9137913,18.8605 C13.3047913,18.4695 13.599958,17.9903333 13.7992913,17.423 C13.9986247,16.8556667 14.105958,16.227 14.1212913,15.537 L9.75129134,15.537 L9.75129134,13.352 L16.7432913,13.352 L16.7432913,22 Z" id="Path"></path>
                <path d="M35.5695674,7.533 C34.6955674,7.533 33.9404008,7.70933333 33.3040674,8.062 C32.6677341,8.41466667 32.1502341,8.88616667 31.7515674,9.4765 C31.3529008,10.0668333 31.0577341,10.7376667 30.8660674,11.489 C30.6744008,12.2403333 30.5785674,13.007 30.5785674,13.789 C30.5785674,14.571 30.6744008,15.3376667 30.8660674,16.089 C31.0577341,16.8403333 31.3529008,17.5111667 31.7515674,18.1015 C32.1502341,18.6918333 32.6677341,19.1633333 33.3040674,19.516 C33.9404008,19.8686667 34.6955674,20.045 35.5695674,20.045 C36.4435674,20.045 37.1987341,19.8686667 37.8350674,19.516 C38.4714008,19.1633333 38.9889008,18.6918333 39.3875674,18.1015 C39.7862341,17.5111667 40.0814008,16.8403333 40.2730674,16.089 C40.4647341,15.3376667 40.5605674,14.571 40.5605674,13.789 C40.5605674,13.007 40.4647341,12.2403333 40.2730674,11.489 C40.0814008,10.7376667 39.7862341,10.0668333 39.3875674,9.4765 C38.9889008,8.88616667 38.4714008,8.41466667 37.8350674,8.062 C37.1987341,7.70933333 36.4435674,7.533 35.5695674,7.533 Z M35.5695674,5.187 C36.7962341,5.187 37.8964008,5.417 38.8700674,5.877 C39.8437341,6.337 40.6679008,6.958 41.3425674,7.74 C42.0172341,8.522 42.5347341,9.43433333 42.8950674,10.477 C43.2554008,11.5196667 43.4355674,12.6236667 43.4355674,13.789 C43.4355674,14.9696667 43.2554008,16.0813333 42.8950674,17.124 C42.5347341,18.1666667 42.0172341,19.079 41.3425674,19.861 C40.6679008,20.643 39.8437341,21.2601667 38.8700674,21.7125 C37.8964008,22.1648333 36.7962341,22.391 35.5695674,22.391 C34.3429008,22.391 33.2427341,22.1648333 32.2690674,21.7125 C31.2954008,21.2601667 30.4712341,20.643 29.7965674,19.861 C29.1219008,19.079 28.6044008,18.1666667 28.2440674,17.124 C27.8837341,16.0813333 27.7035674,14.9696667 27.7035674,13.789 C27.7035674,12.6236667 27.8837341,11.5196667 28.2440674,10.477 C28.6044008,9.43433333 29.1219008,8.522 29.7965674,7.74 C30.4712341,6.958 31.2954008,6.337 32.2690674,5.877 C33.2427341,5.417 34.3429008,5.187 35.5695674,5.187 Z" id="Shape"></path>
                <polygon id="Path" points="68.2541196 5.578 71.1751196 5.578 74.1421196 18.136 74.1881196 18.136 77.5001196 5.578 80.4441196 5.578 83.6641196 18.136 83.7101196 18.136 86.7691196 5.578 89.6901196 5.578 85.1591196 22 82.2381196 22 78.9491196 9.442 78.9031196 9.442 75.5451196 22 72.5781196 22"></polygon>
                <polygon id="Path" points="100.282396 5.578 112.104396 5.578 112.104396 8.062 103.157396 8.062 103.157396 12.363 111.437396 12.363 111.437396 14.709 103.157396 14.709 103.157396 19.516 112.265396 19.516 112.265396 22 100.282396 22"></polygon>
                <path d="M126.353672,12.455 L131.045672,12.455 C131.735672,12.455 132.310672,12.2595 132.770672,11.8685 C133.230672,11.4775 133.460672,10.914 133.460672,10.178 C133.460672,9.35 133.253672,8.76733333 132.839672,8.43 C132.425672,8.09266667 131.827672,7.924 131.045672,7.924 L126.353672,7.924 L126.353672,12.455 Z M123.478672,5.578 L131.459672,5.578 C132.931672,5.578 134.112338,5.91533333 135.001672,6.59 C135.891005,7.26466667 136.335672,8.28433333 136.335672,9.649 C136.335672,10.477 136.132505,11.1861667 135.726172,11.7765 C135.319838,12.3668333 134.741005,12.823 133.989672,13.145 L133.989672,13.191 C135.001672,13.4056667 135.768338,13.8848333 136.289672,14.6285 C136.811005,15.3721667 137.071672,16.3036667 137.071672,17.423 C137.071672,18.067 136.956672,18.6688333 136.726672,19.2285 C136.496672,19.7881667 136.136338,20.2711667 135.645672,20.6775 C135.155005,21.0838333 134.526338,21.4058333 133.759672,21.6435 C132.993005,21.8811667 132.080672,22 131.022672,22 L123.478672,22 L123.478672,5.578 Z M126.353672,19.654 L131.436672,19.654 C132.310672,19.654 132.989172,19.4278333 133.472172,18.9755 C133.955172,18.5231667 134.196672,17.883 134.196672,17.055 C134.196672,16.2423333 133.955172,15.6175 133.472172,15.1805 C132.989172,14.7435 132.310672,14.525 131.436672,14.525 L126.353672,14.525 L126.353672,19.654 Z" id="Shape"></path>
                <polygon id="Path" points="163.477224 5.578 174.816224 5.578 174.816224 8.062 166.352224 8.062 166.352224 12.363 173.781224 12.363 173.781224 14.709 166.352224 14.709 166.352224 22 163.477224 22"></polygon>
                <path d="M185.8225,5.578 L193.6655,5.578 C195.474833,5.578 196.831833,5.969 197.7365,6.751 C198.641167,7.533 199.0935,8.62166667 199.0935,10.017 C199.0935,10.799 198.9785,11.4468333 198.7485,11.9605 C198.5185,12.4741667 198.250167,12.8881667 197.9435,13.2025 C197.636833,13.5168333 197.334,13.743 197.035,13.881 C196.736,14.019 196.5175,14.111 196.3795,14.157 L196.3795,14.203 C196.624833,14.2336667 196.889333,14.3103333 197.173,14.433 C197.456667,14.5556667 197.721167,14.7511667 197.9665,15.0195 C198.211833,15.2878333 198.415,15.6366667 198.576,16.066 C198.737,16.4953333 198.8175,17.032 198.8175,17.676 C198.8175,18.642 198.890333,19.5198333 199.036,20.3095 C199.181667,21.0991667 199.407833,21.6626667 199.7145,22 L196.6325,22 C196.417833,21.6473333 196.291333,21.2563333 196.253,20.827 C196.214667,20.3976667 196.1955,19.9836667 196.1955,19.585 C196.1955,18.8336667 196.1495,18.1858333 196.0575,17.6415 C195.9655,17.0971667 195.796833,16.6448333 195.5515,16.2845 C195.306167,15.9241667 194.972667,15.6596667 194.551,15.491 C194.129333,15.3223333 193.588833,15.238 192.9295,15.238 L188.6975,15.238 L188.6975,22 L185.8225,22 L185.8225,5.578 Z M188.6975,13.053 L193.4125,13.053 C194.3325,13.053 195.030167,12.8345 195.5055,12.3975 C195.980833,11.9605 196.2185,11.305 196.2185,10.431 C196.2185,9.90966667 196.141833,9.48416667 195.9885,9.1545 C195.835167,8.82483333 195.624333,8.568 195.356,8.384 C195.087667,8.2 194.781,8.07733333 194.436,8.016 C194.091,7.95466667 193.7345,7.924 193.3665,7.924 L188.6975,7.924 L188.6975,13.053 Z" id="Shape"></path>
                <path d="M215.113776,5.578 L218.172776,5.578 L224.497776,22 L221.415776,22 L219.874776,17.653 L213.319776,17.653 L211.778776,22 L208.811776,22 L215.113776,5.578 Z M214.101776,15.468 L219.115776,15.468 L216.654776,8.407 L216.585776,8.407 L214.101776,15.468 Z" id="Shape"></path>
                <polygon id="Path" points="234.722052 5.578 238.770052 5.578 243.301052 18.435 243.347052 18.435 247.763052 5.578 251.765052 5.578 251.765052 22 249.028052 22 249.028052 9.327 248.982052 9.327 244.428052 22 242.059052 22 237.505052 9.327 237.459052 9.327 237.459052 22 234.722052 22"></polygon>
                <polygon id="Path" points="263.921328 5.578 275.743328 5.578 275.743328 8.062 266.796328 8.062 266.796328 12.363 275.076328 12.363 275.076328 14.709 266.796328 14.709 266.796328 19.516 275.904328 19.516 275.904328 22 263.921328 22"></polygon>
                <polygon id="Path" points="285.507604 5.578 288.428604 5.578 291.395604 18.136 291.441604 18.136 294.753604 5.578 297.697604 5.578 300.917604 18.136 300.963604 18.136 304.022604 5.578 306.943604 5.578 302.412604 22 299.491604 22 296.202604 9.442 296.156604 9.442 292.798604 22 289.831604 22"></polygon>
                <path d="M324.52788,7.533 C323.65388,7.533 322.898714,7.70933333 322.26238,8.062 C321.626047,8.41466667 321.108547,8.88616667 320.70988,9.4765 C320.311214,10.0668333 320.016047,10.7376667 319.82438,11.489 C319.632714,12.2403333 319.53688,13.007 319.53688,13.789 C319.53688,14.571 319.632714,15.3376667 319.82438,16.089 C320.016047,16.8403333 320.311214,17.5111667 320.70988,18.1015 C321.108547,18.6918333 321.626047,19.1633333 322.26238,19.516 C322.898714,19.8686667 323.65388,20.045 324.52788,20.045 C325.40188,20.045 326.157047,19.8686667 326.79338,19.516 C327.429714,19.1633333 327.947214,18.6918333 328.34588,18.1015 C328.744547,17.5111667 329.039714,16.8403333 329.23138,16.089 C329.423047,15.3376667 329.51888,14.571 329.51888,13.789 C329.51888,13.007 329.423047,12.2403333 329.23138,11.489 C329.039714,10.7376667 328.744547,10.0668333 328.34588,9.4765 C327.947214,8.88616667 327.429714,8.41466667 326.79338,8.062 C326.157047,7.70933333 325.40188,7.533 324.52788,7.533 Z M324.52788,5.187 C325.754547,5.187 326.854714,5.417 327.82838,5.877 C328.802047,6.337 329.626214,6.958 330.30088,7.74 C330.975547,8.522 331.493047,9.43433333 331.85338,10.477 C332.213714,11.5196667 332.39388,12.6236667 332.39388,13.789 C332.39388,14.9696667 332.213714,16.0813333 331.85338,17.124 C331.493047,18.1666667 330.975547,19.079 330.30088,19.861 C329.626214,20.643 328.802047,21.2601667 327.82838,21.7125 C326.854714,22.1648333 325.754547,22.391 324.52788,22.391 C323.301214,22.391 322.201047,22.1648333 321.22738,21.7125 C320.253714,21.2601667 319.429547,20.643 318.75488,19.861 C318.080214,19.079 317.562714,18.1666667 317.20238,17.124 C316.842047,16.0813333 316.66188,14.9696667 316.66188,13.789 C316.66188,12.6236667 316.842047,11.5196667 317.20238,10.477 C317.562714,9.43433333 318.080214,8.522 318.75488,7.74 C319.429547,6.958 320.253714,6.337 321.22738,5.877 C322.201047,5.417 323.301214,5.187 324.52788,5.187 Z" id="Shape"></path>
                <path d="M343.722156,5.578 L351.565156,5.578 C353.37449,5.578 354.73149,5.969 355.636156,6.751 C356.540823,7.533 356.993156,8.62166667 356.993156,10.017 C356.993156,10.799 356.878156,11.4468333 356.648156,11.9605 C356.418156,12.4741667 356.149823,12.8881667 355.843156,13.2025 C355.53649,13.5168333 355.233656,13.743 354.934656,13.881 C354.635656,14.019 354.417156,14.111 354.279156,14.157 L354.279156,14.203 C354.52449,14.2336667 354.78899,14.3103333 355.072656,14.433 C355.356323,14.5556667 355.620823,14.7511667 355.866156,15.0195 C356.11149,15.2878333 356.314656,15.6366667 356.475656,16.066 C356.636656,16.4953333 356.717156,17.032 356.717156,17.676 C356.717156,18.642 356.78999,19.5198333 356.935656,20.3095 C357.081323,21.0991667 357.30749,21.6626667 357.614156,22 L354.532156,22 C354.31749,21.6473333 354.19099,21.2563333 354.152656,20.827 C354.114323,20.3976667 354.095156,19.9836667 354.095156,19.585 C354.095156,18.8336667 354.049156,18.1858333 353.957156,17.6415 C353.865156,17.0971667 353.69649,16.6448333 353.451156,16.2845 C353.205823,15.9241667 352.872323,15.6596667 352.450656,15.491 C352.02899,15.3223333 351.48849,15.238 350.829156,15.238 L346.597156,15.238 L346.597156,22 L343.722156,22 L343.722156,5.578 Z M346.597156,13.053 L351.312156,13.053 C352.232156,13.053 352.929823,12.8345 353.405156,12.3975 C353.88049,11.9605 354.118156,11.305 354.118156,10.431 C354.118156,9.90966667 354.04149,9.48416667 353.888156,9.1545 C353.734823,8.82483333 353.52399,8.568 353.255656,8.384 C352.987323,8.2 352.680656,8.07733333 352.335656,8.016 C351.990656,7.95466667 351.634156,7.924 351.266156,7.924 L346.597156,7.924 L346.597156,13.053 Z" id="Shape"></path>
                <polygon id="Path" points="368.620433 5.578 371.495433 5.578 371.495433 13.053 378.809433 5.578 382.351433 5.578 375.796433 12.133 382.811433 22 379.223433 22 373.841433 14.157 371.495433 16.48 371.495433 22 368.620433 22"></polygon>
            </g>
        </g>
    </g>
</svg>